STARTFONT 2.1
COMMENT Recovered from ar1.1:TR8I 1 (Xerox Alto CONVERT font source (AL) recovered from MIT CADR AR1 ARC!!!)
FONT MIT-CADR-TR8I-AL-AR1
SIZE 10 72 72
FONTBOUNDINGBOX 12 10 0 -3
STARTPROPERTIES 2
FONT_ASCENT 7
FONT_DESCENT 3
ENDPROPERTIES
CHARS 128
STARTCHAR C0000
ENCODING -1 0
SWIDTH 0 0
DWIDTH 0 0
BBX 0 10 0 -3
BITMAP
00
00
00
00
00
00
00
00
00
00
ENDCHAR
STARTCHAR C0001
ENCODING -1 1
SWIDTH 0 0
DWIDTH 0 0
BBX 0 10 0 -3
BITMAP
00
00
00
00
00
00
00
00
00
00
ENDCHAR
STARTCHAR C0002
ENCODING -1 2
SWIDTH 0 0
DWIDTH 0 0
BBX 0 10 0 -3
BITMAP
00
00
00
00
00
00
00
00
00
00
ENDCHAR
STARTCHAR C0003
ENCODING -1 3
SWIDTH 0 0
DWIDTH 0 0
BBX 0 10 0 -3
BITMAP
00
00
00
00
00
00
00
00
00
00
ENDCHAR
STARTCHAR C0004
ENCODING -1 4
SWIDTH 0 0
DWIDTH 0 0
BBX 0 10 0 -3
BITMAP
00
00
00
00
00
00
00
00
00
00
ENDCHAR
STARTCHAR C0005
ENCODING -1 5
SWIDTH 0 0
DWIDTH 0 0
BBX 0 10 0 -3
BITMAP
00
00
00
00
00
00
00
00
00
00
ENDCHAR
STARTCHAR C0006
ENCODING -1 6
SWIDTH 0 0
DWIDTH 0 0
BBX 0 10 0 -3
BITMAP
00
00
00
00
00
00
00
00
00
00
ENDCHAR
STARTCHAR C0007
ENCODING -1 7
SWIDTH 0 0
DWIDTH 0 0
BBX 0 10 0 -3
BITMAP
00
00
00
00
00
00
00
00
00
00
ENDCHAR
STARTCHAR C0008
ENCODING -1 8
SWIDTH 0 0
DWIDTH 0 0
BBX 0 10 0 -3
BITMAP
00
00
00
00
00
00
00
00
00
00
ENDCHAR
STARTCHAR C0009
ENCODING -1 9
SWIDTH 0 0
DWIDTH 0 0
BBX 0 10 0 -3
BITMAP
00
00
00
00
00
00
00
00
00
00
ENDCHAR
STARTCHAR C000A
ENCODING -1 10
SWIDTH 0 0
DWIDTH 0 0
BBX 0 10 0 -3
BITMAP
00
00
00
00
00
00
00
00
00
00
ENDCHAR
STARTCHAR C000B
ENCODING -1 11
SWIDTH 0 0
DWIDTH 0 0
BBX 0 10 0 -3
BITMAP
00
00
00
00
00
00
00
00
00
00
ENDCHAR
STARTCHAR C000C
ENCODING -1 12
SWIDTH 0 0
DWIDTH 0 0
BBX 0 10 0 -3
BITMAP
00
00
00
00
00
00
00
00
00
00
ENDCHAR
STARTCHAR C000D
ENCODING -1 13
SWIDTH 0 0
DWIDTH 0 0
BBX 0 10 0 -3
BITMAP
00
00
00
00
00
00
00
00
00
00
ENDCHAR
STARTCHAR C000E
ENCODING -1 14
SWIDTH 0 0
DWIDTH 0 0
BBX 0 10 0 -3
BITMAP
00
00
00
00
00
00
00
00
00
00
ENDCHAR
STARTCHAR C000F
ENCODING -1 15
SWIDTH 0 0
DWIDTH 0 0
BBX 0 10 0 -3
BITMAP
00
00
00
00
00
00
00
00
00
00
ENDCHAR
STARTCHAR C0010
ENCODING -1 16
SWIDTH 0 0
DWIDTH 0 0
BBX 0 10 0 -3
BITMAP
00
00
00
00
00
00
00
00
00
00
ENDCHAR
STARTCHAR C0011
ENCODING -1 17
SWIDTH 0 0
DWIDTH 0 0
BBX 0 10 0 -3
BITMAP
00
00
00
00
00
00
00
00
00
00
ENDCHAR
STARTCHAR C0012
ENCODING -1 18
SWIDTH 0 0
DWIDTH 0 0
BBX 0 10 0 -3
BITMAP
00
00
00
00
00
00
00
00
00
00
ENDCHAR
STARTCHAR C0013
ENCODING -1 19
SWIDTH 0 0
DWIDTH 0 0
BBX 0 10 0 -3
BITMAP
00
00
00
00
00
00
00
00
00
00
ENDCHAR
STARTCHAR C0014
ENCODING -1 20
SWIDTH 0 0
DWIDTH 0 0
BBX 0 10 0 -3
BITMAP
00
00
00
00
00
00
00
00
00
00
ENDCHAR
STARTCHAR C0015
ENCODING -1 21
SWIDTH 0 0
DWIDTH 0 0
BBX 0 10 0 -3
BITMAP
00
00
00
00
00
00
00
00
00
00
ENDCHAR
STARTCHAR C0016
ENCODING -1 22
SWIDTH 0 0
DWIDTH 0 0
BBX 0 10 0 -3
BITMAP
00
00
00
00
00
00
00
00
00
00
ENDCHAR
STARTCHAR C0017
ENCODING -1 23
SWIDTH 0 0
DWIDTH 0 0
BBX 0 10 0 -3
BITMAP
00
00
00
00
00
00
00
00
00
00
ENDCHAR
STARTCHAR C0018
ENCODING -1 24
SWIDTH 0 0
DWIDTH 0 0
BBX 0 10 0 -3
BITMAP
00
00
00
00
00
00
00
00
00
00
ENDCHAR
STARTCHAR C0019
ENCODING -1 25
SWIDTH 0 0
DWIDTH 0 0
BBX 0 10 0 -3
BITMAP
00
00
00
00
00
00
00
00
00
00
ENDCHAR
STARTCHAR C001A
ENCODING -1 26
SWIDTH 0 0
DWIDTH 0 0
BBX 0 10 0 -3
BITMAP
00
00
00
00
00
00
00
00
00
00
ENDCHAR
STARTCHAR C001B
ENCODING -1 27
SWIDTH 0 0
DWIDTH 0 0
BBX 0 10 0 -3
BITMAP
00
00
00
00
00
00
00
00
00
00
ENDCHAR
STARTCHAR C001C
ENCODING -1 28
SWIDTH 0 0
DWIDTH 0 0
BBX 0 10 0 -3
BITMAP
00
00
00
00
00
00
00
00
00
00
ENDCHAR
STARTCHAR C001D
ENCODING -1 29
SWIDTH 0 0
DWIDTH 0 0
BBX 0 10 0 -3
BITMAP
00
00
00
00
00
00
00
00
00
00
ENDCHAR
STARTCHAR C001E
ENCODING -1 30
SWIDTH 0 0
DWIDTH 0 0
BBX 0 10 0 -3
BITMAP
00
00
00
00
00
00
00
00
00
00
ENDCHAR
STARTCHAR C001F
ENCODING -1 31
SWIDTH 0 0
DWIDTH 0 0
BBX 0 10 0 -3
BITMAP
00
00
00
00
00
00
00
00
00
00
ENDCHAR
STARTCHAR C0020
ENCODING -1 32
SWIDTH 400 0
DWIDTH 4 0
BBX 4 10 0 -3
BITMAP
00
00
00
00
00
00
00
00
00
00
ENDCHAR
STARTCHAR C0021
ENCODING -1 33
SWIDTH 500 0
DWIDTH 5 0
BBX 5 10 0 -3
BITMAP
00
08
08
10
10
00
20
20
00
00
ENDCHAR
STARTCHAR C0022
ENCODING -1 34
SWIDTH 700 0
DWIDTH 7 0
BBX 7 10 0 -3
BITMAP
12
12
24
24
00
00
00
00
00
00
ENDCHAR
STARTCHAR C0023
ENCODING -1 35
SWIDTH 1000 0
DWIDTH 10 0
BBX 10 10 0 -3
BITMAP
0000
0240
0480
1FC0
0900
3F80
1200
2400
0000
0000
ENDCHAR
STARTCHAR C0024
ENCODING -1 36
SWIDTH 800 0
DWIDTH 8 0
BBX 8 10 0 -3
BITMAP
02
0F
15
14
0C
0A
2A
3C
10
00
ENDCHAR
STARTCHAR C0025
ENCODING -1 37
SWIDTH 1100 0
DWIDTH 11 0
BBX 11 10 0 -3
BITMAP
0000
1C40
2B80
2900
3260
04A0
08A0
10C0
0000
0000
ENDCHAR
STARTCHAR C0026
ENCODING -1 38
SWIDTH 900 0
DWIDTH 9 0
BBX 9 10 0 -3
BITMAP
0000
0600
0900
0A00
1C80
2500
2200
1D80
0000
0000
ENDCHAR
STARTCHAR C0027
ENCODING -1 39
SWIDTH 400 0
DWIDTH 4 0
BBX 4 10 0 -3
BITMAP
10
10
20
20
00
00
00
00
00
00
ENDCHAR
STARTCHAR C0028
ENCODING -1 40
SWIDTH 600 0
DWIDTH 6 0
BBX 6 10 0 -3
BITMAP
00
04
08
10
10
20
20
20
20
10
ENDCHAR
STARTCHAR C0029
ENCODING -1 41
SWIDTH 600 0
DWIDTH 6 0
BBX 6 10 0 -3
BITMAP
00
08
04
04
04
04
08
08
10
20
ENDCHAR
STARTCHAR C002A
ENCODING -1 42
SWIDTH 700 0
DWIDTH 7 0
BBX 7 10 0 -3
BITMAP
08
2A
1C
2A
00
00
00
00
00
00
ENDCHAR
STARTCHAR C002B
ENCODING -1 43
SWIDTH 800 0
DWIDTH 8 0
BBX 8 10 0 -3
BITMAP
00
00
00
04
04
3F
08
08
00
00
ENDCHAR
STARTCHAR C002C
ENCODING -1 44
SWIDTH 400 0
DWIDTH 4 0
BBX 4 10 0 -3
BITMAP
00
00
00
00
00
00
30
10
10
60
ENDCHAR
STARTCHAR C002D
ENCODING -1 45
SWIDTH 600 0
DWIDTH 6 0
BBX 6 10 0 -3
BITMAP
00
00
00
00
00
3C
00
00
00
00
ENDCHAR
STARTCHAR C002E
ENCODING -1 46
SWIDTH 300 0
DWIDTH 3 0
BBX 3 10 0 -3
BITMAP
00
00
00
00
00
00
20
20
00
00
ENDCHAR
STARTCHAR C002F
ENCODING -1 47
SWIDTH 700 0
DWIDTH 7 0
BBX 7 10 0 -3
BITMAP
00
02
04
04
08
10
10
20
00
00
ENDCHAR
STARTCHAR C0030
ENCODING -1 48
SWIDTH 700 0
DWIDTH 7 0
BBX 7 10 0 -3
BITMAP
00
0C
12
22
22
22
24
18
00
00
ENDCHAR
STARTCHAR C0031
ENCODING -1 49
SWIDTH 800 0
DWIDTH 8 0
BBX 8 10 0 -3
BITMAP
00
06
0A
02
04
04
08
1C
00
00
ENDCHAR
STARTCHAR C0032
ENCODING -1 50
SWIDTH 700 0
DWIDTH 7 0
BBX 7 10 0 -3
BITMAP
00
0C
12
02
04
08
12
3C
00
00
ENDCHAR
STARTCHAR C0033
ENCODING -1 51
SWIDTH 700 0
DWIDTH 7 0
BBX 7 10 0 -3
BITMAP
00
0C
12
02
0C
24
24
18
00
00
ENDCHAR
STARTCHAR C0034
ENCODING -1 52
SWIDTH 700 0
DWIDTH 7 0
BBX 7 10 0 -3
BITMAP
00
06
0A
12
24
7E
08
08
00
00
ENDCHAR
STARTCHAR C0035
ENCODING -1 53
SWIDTH 700 0
DWIDTH 7 0
BBX 7 10 0 -3
BITMAP
00
0E
10
18
24
04
24
18
00
00
ENDCHAR
STARTCHAR C0036
ENCODING -1 54
SWIDTH 700 0
DWIDTH 7 0
BBX 7 10 0 -3
BITMAP
00
06
08
1C
22
22
24
18
00
00
ENDCHAR
STARTCHAR C0037
ENCODING -1 55
SWIDTH 700 0
DWIDTH 7 0
BBX 7 10 0 -3
BITMAP
00
1E
22
04
08
08
10
10
00
00
ENDCHAR
STARTCHAR C0038
ENCODING -1 56
SWIDTH 700 0
DWIDTH 7 0
BBX 7 10 0 -3
BITMAP
00
06
0A
0A
14
22
22
1C
00
00
ENDCHAR
STARTCHAR C0039
ENCODING -1 57
SWIDTH 700 0
DWIDTH 7 0
BBX 7 10 0 -3
BITMAP
00
0C
12
22
24
1C
08
70
00
00
ENDCHAR
STARTCHAR C003A
ENCODING -1 58
SWIDTH 400 0
DWIDTH 4 0
BBX 4 10 0 -3
BITMAP
00
00
00
10
10
00
20
20
00
00
ENDCHAR
STARTCHAR C003B
ENCODING -1 59
SWIDTH 500 0
DWIDTH 5 0
BBX 5 10 0 -3
BITMAP
00
00
00
08
08
00
30
10
10
60
ENDCHAR
STARTCHAR C003C
ENCODING -1 60
SWIDTH 600 0
DWIDTH 6 0
BBX 6 10 0 -3
BITMAP
00
04
08
10
20
20
10
08
00
00
ENDCHAR
STARTCHAR C003D
ENCODING -1 61
SWIDTH 700 0
DWIDTH 7 0
BBX 7 10 0 -3
BITMAP
00
00
00
00
1E
00
3C
00
00
00
ENDCHAR
STARTCHAR C003E
ENCODING -1 62
SWIDTH 600 0
DWIDTH 6 0
BBX 6 10 0 -3
BITMAP
00
10
08
04
04
08
10
20
00
00
ENDCHAR
STARTCHAR C003F
ENCODING -1 63
SWIDTH 600 0
DWIDTH 6 0
BBX 6 10 0 -3
BITMAP
00
18
24
08
10
00
20
20
00
00
ENDCHAR
STARTCHAR C0040
ENCODING -1 64
SWIDTH 1000 0
DWIDTH 10 0
BBX 10 10 0 -3
BITMAP
0000
0F80
1040
2740
2940
2940
2680
1000
0F00
0000
ENDCHAR
STARTCHAR C0041
ENCODING -1 65
SWIDTH 900 0
DWIDTH 9 0
BBX 9 10 0 -3
BITMAP
0000
0300
0300
0500
0900
0F00
1100
3B80
0000
0000
ENDCHAR
STARTCHAR C0042
ENCODING -1 66
SWIDTH 700 0
DWIDTH 7 0
BBX 7 10 0 -3
BITMAP
00
3C
12
12
3C
22
22
7C
00
00
ENDCHAR
STARTCHAR C0043
ENCODING -1 67
SWIDTH 700 0
DWIDTH 7 0
BBX 7 10 0 -3
BITMAP
00
1A
26
40
40
40
22
1C
00
00
ENDCHAR
STARTCHAR C0044
ENCODING -1 68
SWIDTH 800 0
DWIDTH 8 0
BBX 8 10 0 -3
BITMAP
00
3E
11
11
11
21
22
7C
00
00
ENDCHAR
STARTCHAR C0045
ENCODING -1 69
SWIDTH 800 0
DWIDTH 8 0
BBX 8 10 0 -3
BITMAP
00
3F
11
14
3C
24
21
7F
00
00
ENDCHAR
STARTCHAR C0046
ENCODING -1 70
SWIDTH 800 0
DWIDTH 8 0
BBX 8 10 0 -3
BITMAP
00
3F
11
14
3C
24
20
70
00
00
ENDCHAR
STARTCHAR C0047
ENCODING -1 71
SWIDTH 700 0
DWIDTH 7 0
BBX 7 10 0 -3
BITMAP
00
1A
26
40
4E
44
44
38
00
00
ENDCHAR
STARTCHAR C0048
ENCODING -1 72
SWIDTH 900 0
DWIDTH 9 0
BBX 9 10 0 -3
BITMAP
0000
3B80
1100
1100
3F00
2200
2200
7700
0000
0000
ENDCHAR
STARTCHAR C0049
ENCODING -1 73
SWIDTH 500 0
DWIDTH 5 0
BBX 5 10 0 -3
BITMAP
00
38
10
10
10
20
20
70
00
00
ENDCHAR
STARTCHAR C004A
ENCODING -1 74
SWIDTH 600 0
DWIDTH 6 0
BBX 6 10 0 -3
BITMAP
00
1C
08
08
10
10
D0
60
00
00
ENDCHAR
STARTCHAR C004B
ENCODING -1 75
SWIDTH 800 0
DWIDTH 8 0
BBX 8 10 0 -3
BITMAP
00
3B
12
14
18
28
24
76
00
00
ENDCHAR
STARTCHAR C004C
ENCODING -1 76
SWIDTH 700 0
DWIDTH 7 0
BBX 7 10 0 -3
BITMAP
00
38
10
10
20
20
22
7E
00
00
ENDCHAR
STARTCHAR C004D
ENCODING -1 77
SWIDTH 1100 0
DWIDTH 11 0
BBX 11 10 0 -3
BITMAP
0000
3CE0
14C0
1540
1640
2680
2480
75C0
0000
0000
ENDCHAR
STARTCHAR C004E
ENCODING -1 78
SWIDTH 900 0
DWIDTH 9 0
BBX 9 10 0 -3
BITMAP
0000
3380
1900
1900
2D00
2600
2600
7200
0000
0000
ENDCHAR
STARTCHAR C004F
ENCODING -1 79
SWIDTH 700 0
DWIDTH 7 0
BBX 7 10 0 -3
BITMAP
00
1C
22
42
42
42
44
38
00
00
ENDCHAR
STARTCHAR C0050
ENCODING -1 80
SWIDTH 700 0
DWIDTH 7 0
BBX 7 10 0 -3
BITMAP
00
3C
12
12
3C
20
20
70
00
00
ENDCHAR
STARTCHAR C0051
ENCODING -1 81
SWIDTH 700 0
DWIDTH 7 0
BBX 7 10 0 -3
BITMAP
00
1C
22
42
42
42
44
38
22
5C
ENDCHAR
STARTCHAR C0052
ENCODING -1 82
SWIDTH 700 0
DWIDTH 7 0
BBX 7 10 0 -3
BITMAP
00
3C
12
12
3C
28
24
76
00
00
ENDCHAR
STARTCHAR C0053
ENCODING -1 83
SWIDTH 600 0
DWIDTH 6 0
BBX 6 10 0 -3
BITMAP
00
1C
24
20
10
08
48
70
00
00
ENDCHAR
STARTCHAR C0054
ENCODING -1 84
SWIDTH 800 0
DWIDTH 8 0
BBX 8 10 0 -3
BITMAP
00
7F
49
08
08
10
10
38
00
00
ENDCHAR
STARTCHAR C0055
ENCODING -1 85
SWIDTH 800 0
DWIDTH 8 0
BBX 8 10 0 -3
BITMAP
00
77
22
22
44
44
44
38
00
00
ENDCHAR
STARTCHAR C0056
ENCODING -1 86
SWIDTH 800 0
DWIDTH 8 0
BBX 8 10 0 -3
BITMAP
00
77
22
24
24
28
30
30
00
00
ENDCHAR
STARTCHAR C0057
ENCODING -1 87
SWIDTH 1200 0
DWIDTH 12 0
BBX 12 10 0 -3
BITMAP
0000
7770
2220
2640
2640
2A80
3300
3300
0000
0000
ENDCHAR
STARTCHAR C0058
ENCODING -1 88
SWIDTH 800 0
DWIDTH 8 0
BBX 8 10 0 -3
BITMAP
00
3B
12
0C
08
18
24
6E
00
00
ENDCHAR
STARTCHAR C0059
ENCODING -1 89
SWIDTH 800 0
DWIDTH 8 0
BBX 8 10 0 -3
BITMAP
00
77
22
14
08
10
10
38
00
00
ENDCHAR
STARTCHAR C005A
ENCODING -1 90
SWIDTH 800 0
DWIDTH 8 0
BBX 8 10 0 -3
BITMAP
00
1F
22
04
08
10
21
7E
00
00
ENDCHAR
STARTCHAR C005B
ENCODING -1 91
SWIDTH 800 0
DWIDTH 8 0
BBX 8 10 0 -3
BITMAP
00
07
04
08
08
10
10
10
20
38
ENDCHAR
STARTCHAR C005C
ENCODING -1 92
SWIDTH 600 0
DWIDTH 6 0
BBX 6 10 0 -3
BITMAP
00
10
10
08
08
08
04
04
04
00
ENDCHAR
STARTCHAR C005D
ENCODING -1 93
SWIDTH 800 0
DWIDTH 8 0
BBX 8 10 0 -3
BITMAP
00
07
01
02
02
04
04
04
08
38
ENDCHAR
STARTCHAR C005E
ENCODING -1 94
SWIDTH 700 0
DWIDTH 7 0
BBX 7 10 0 -3
BITMAP
00
08
1C
2A
08
10
10
10
00
00
ENDCHAR
STARTCHAR C005F
ENCODING -1 95
SWIDTH 900 0
DWIDTH 9 0
BBX 9 10 0 -3
BITMAP
0000
0000
0000
0400
0800
3F80
1000
0800
0000
0000
ENDCHAR
STARTCHAR C0060
ENCODING -1 96
SWIDTH 0 0
DWIDTH 0 0
BBX 0 10 0 -3
BITMAP
00
00
00
00
00
00
00
00
00
00
ENDCHAR
STARTCHAR C0061
ENCODING -1 97
SWIDTH 700 0
DWIDTH 7 0
BBX 7 10 0 -3
BITMAP
00
00
00
1E
24
44
4C
36
00
00
ENDCHAR
STARTCHAR C0062
ENCODING -1 98
SWIDTH 700 0
DWIDTH 7 0
BBX 7 10 0 -3
BITMAP
00
18
08
1C
12
22
24
38
00
00
ENDCHAR
STARTCHAR C0063
ENCODING -1 99
SWIDTH 600 0
DWIDTH 6 0
BBX 6 10 0 -3
BITMAP
00
00
00
1C
24
40
48
30
00
00
ENDCHAR
STARTCHAR C0064
ENCODING -1 100
SWIDTH 600 0
DWIDTH 6 0
BBX 7 10 0 -3
BITMAP
00
06
02
1C
24
48
48
34
00
00
ENDCHAR
STARTCHAR C0065
ENCODING -1 101
SWIDTH 600 0
DWIDTH 6 0
BBX 6 10 0 -3
BITMAP
00
00
00
18
24
78
40
38
00
00
ENDCHAR
STARTCHAR C0066
ENCODING -1 102
SWIDTH 600 0
DWIDTH 6 0
BBX 8 10 0 -3
BITMAP
00
07
09
3C
08
10
10
10
A0
C0
ENDCHAR
STARTCHAR C0067
ENCODING -1 103
SWIDTH 700 0
DWIDTH 7 0
BBX 7 10 0 -3
BITMAP
00
00
00
1E
24
3C
10
7C
84
F8
ENDCHAR
STARTCHAR C0068
ENCODING -1 104
SWIDTH 700 0
DWIDTH 7 0
BBX 7 10 0 -3
BITMAP
00
18
08
1C
12
24
24
6E
00
00
ENDCHAR
STARTCHAR C0069
ENCODING -1 105
SWIDTH 500 0
DWIDTH 5 0
BBX 5 10 0 -3
BITMAP
08
08
00
30
10
10
20
30
00
00
ENDCHAR
STARTCHAR C006A
ENCODING -1 106
SWIDTH 600 0
DWIDTH 6 0
BBX 6 10 0 -3
BITMAP
04
04
00
18
08
10
10
10
A0
E0
ENDCHAR
STARTCHAR C006B
ENCODING -1 107
SWIDTH 800 0
DWIDTH 8 0
BBX 8 10 0 -3
BITMAP
00
18
08
13
14
18
24
76
00
00
ENDCHAR
STARTCHAR C006C
ENCODING -1 108
SWIDTH 500 0
DWIDTH 5 0
BBX 5 10 0 -3
BITMAP
00
18
08
10
10
20
28
30
00
00
ENDCHAR
STARTCHAR C006D
ENCODING -1 109
SWIDTH 1000 0
DWIDTH 10 0
BBX 10 10 0 -3
BITMAP
0000
0000
0000
3DC0
1240
1240
2480
6EC0
0000
0000
ENDCHAR
STARTCHAR C006E
ENCODING -1 110
SWIDTH 600 0
DWIDTH 6 0
BBX 6 10 0 -3
BITMAP
00
00
00
78
24
44
48
DC
00
00
ENDCHAR
STARTCHAR C006F
ENCODING -1 111
SWIDTH 600 0
DWIDTH 6 0
BBX 6 10 0 -3
BITMAP
00
00
00
18
24
44
48
30
00
00
ENDCHAR
STARTCHAR C0070
ENCODING -1 112
SWIDTH 700 0
DWIDTH 7 0
BBX 7 10 0 -3
BITMAP
00
00
00
3C
12
12
22
3C
40
E0
ENDCHAR
STARTCHAR C0071
ENCODING -1 113
SWIDTH 600 0
DWIDTH 6 0
BBX 6 10 0 -3
BITMAP
00
00
00
1C
24
48
48
38
10
38
ENDCHAR
STARTCHAR C0072
ENCODING -1 114
SWIDTH 600 0
DWIDTH 6 0
BBX 6 10 0 -3
BITMAP
00
00
00
3C
14
20
20
70
00
00
ENDCHAR
STARTCHAR C0073
ENCODING -1 115
SWIDTH 600 0
DWIDTH 6 0
BBX 6 10 0 -3
BITMAP
00
00
00
1C
24
10
48
70
00
00
ENDCHAR
STARTCHAR C0074
ENCODING -1 116
SWIDTH 500 0
DWIDTH 5 0
BBX 5 10 0 -3
BITMAP
00
00
10
38
10
20
28
30
00
00
ENDCHAR
STARTCHAR C0075
ENCODING -1 117
SWIDTH 600 0
DWIDTH 6 0
BBX 6 10 0 -3
BITMAP
00
00
00
6C
24
48
48
34
00
00
ENDCHAR
STARTCHAR C0076
ENCODING -1 118
SWIDTH 600 0
DWIDTH 6 0
BBX 6 10 0 -3
BITMAP
00
00
00
6C
24
28
28
30
00
00
ENDCHAR
STARTCHAR C0077
ENCODING -1 119
SWIDTH 800 0
DWIDTH 8 0
BBX 8 10 0 -3
BITMAP
00
00
00
6B
29
2A
36
24
00
00
ENDCHAR
STARTCHAR C0078
ENCODING -1 120
SWIDTH 700 0
DWIDTH 7 0
BBX 7 10 0 -3
BITMAP
00
00
00
36
14
18
28
6C
00
00
ENDCHAR
STARTCHAR C0079
ENCODING -1 121
SWIDTH 600 0
DWIDTH 6 0
BBX 6 10 0 -3
BITMAP
00
00
00
6C
24
28
28
10
50
60
ENDCHAR
STARTCHAR C007A
ENCODING -1 122
SWIDTH 500 0
DWIDTH 5 0
BBX 5 10 0 -3
BITMAP
00
00
00
00
00
00
00
00
00
00
ENDCHAR
STARTCHAR C007B
ENCODING -1 123
SWIDTH 800 0
DWIDTH 8 0
BBX 8 10 0 -3
BITMAP
00
03
04
04
08
30
08
10
10
0C
ENDCHAR
STARTCHAR C007C
ENCODING -1 124
SWIDTH 600 0
DWIDTH 6 0
BBX 6 10 0 -3
BITMAP
00
04
04
08
08
10
10
20
20
00
ENDCHAR
STARTCHAR C007D
ENCODING -1 125
SWIDTH 800 0
DWIDTH 8 0
BBX 8 10 0 -3
BITMAP
00
0C
02
04
04
03
04
08
08
30
ENDCHAR
STARTCHAR C007E
ENCODING -1 126
SWIDTH 800 0
DWIDTH 8 0
BBX 8 10 0 -3
BITMAP
00
00
00
00
19
26
00
00
00
00
ENDCHAR
STARTCHAR C007F
ENCODING -1 127
SWIDTH 0 0
DWIDTH 0 0
BBX 0 10 0 -3
BITMAP
00
00
00
00
00
00
00
00
00
00
ENDCHAR
ENDFONT
